<svg width="100%" height="100%" viewBox="0 0 141 23" fill="none" xmlns="http://www.w3.org/2000/svg">
<path d="M107.981 17.8494H112.617V22.1866H107.981V17.8494Z" fill="CurrentColor"/>
<path d="M8.16587 0.5L10.9626 14.2593H11.9646L14.7614 0.5H22.9273V22.171H18.4704V4.29878H17.4684L13.5799 22.171H9.36234L5.47383 4.29878H4.47179V22.171H0V0.5H8.16587ZM33.7553 5.09143C38.9001 5.09143 41.8912 8.17233 41.8912 13.7957C41.8912 19.4191 38.915 22.5 33.7553 22.5C28.5955 22.5 25.6193 19.4191 25.6193 13.7957C25.6343 8.15738 28.6105 5.09143 33.7553 5.09143ZM33.7553 19.0303C36.0734 19.0303 37.1801 17.774 37.1801 15.0071V12.5544C37.1801 9.78756 36.0884 8.53127 33.7553 8.53127C31.4222 8.53127 30.3304 9.78756 30.3304 12.5544V15.0071C30.3453 17.774 31.4371 19.0303 33.7553 19.0303ZM43.7158 18.9405L52.2257 8.63596H43.8355V5.40551H57.535V8.63596L49.0251 18.9405H57.6546V22.171H43.7158V18.9405ZM59.9878 5.40551H66.2692V22.171H61.8124V8.63596H59.9878V5.40551ZM61.8124 0.5H66.2692V3.73045H61.8124V0.5ZM69.2155 0.5H75.4969V22.171H71.0401V3.73045H69.2155V0.5ZM78.4582 0.5H84.7396V22.171H80.2828V3.73045H78.4582V0.5ZM94.3113 5.09143C96.794 5.09143 98.4242 6.31781 98.9028 8.45649H99.9048V5.40551H105.214V8.63596H103.39V18.9405H105.214V22.171H102.672C100.877 22.171 99.9048 21.1988 99.9048 19.4041V19.12H98.9028C98.4242 21.2587 96.794 22.485 94.3113 22.485C90.3929 22.485 87.6261 19.1499 87.6261 13.7808C87.6261 8.41162 90.3929 5.09143 94.3113 5.09143ZM95.6274 19.0303C97.8858 19.0303 98.9177 17.774 98.9177 15.0071V12.5544C98.9177 9.78756 97.8858 8.53127 95.6274 8.53127C93.3691 8.53127 92.3372 9.78756 92.3372 12.5544V15.0071C92.3372 17.774 93.3691 19.0303 95.6274 19.0303Z" fill="CurrentColor"/>
<path d="M120.798 4.83708C123.281 4.83708 124.911 6.06345 125.39 8.20214H126.392V5.15115H131.701V8.3816H129.876V18.6862H131.701V21.9166H129.159C127.364 21.9166 126.392 20.9445 126.392 19.1498V18.8656H125.39C124.911 21.0043 123.281 22.2307 120.798 22.2307C116.88 22.2307 114.113 18.8955 114.113 13.5264C114.113 8.15727 116.88 4.83708 120.798 4.83708ZM122.114 18.7759C124.373 18.7759 125.405 17.5196 125.405 14.7528V12.3C125.405 9.5332 124.373 8.27691 122.114 8.27691C119.856 8.27691 118.824 9.5332 118.824 12.3V14.7528C118.824 17.5196 119.856 18.7759 122.114 18.7759Z" fill="CurrentColor"/>
<path d="M134.518 5.40587H140.799V22.1713H136.342V8.63633H134.518V5.40587ZM136.342 0.500364H140.799V3.73082H136.342V0.500364Z" fill="CurrentColor"/>
</svg>